# xmcd
# 
# Track frame offsets:
#     150
#     15930
#     30542
#     46250
#     64075
#     81855
#     97542
#     116225
#     134275
#     151992
#     169192
#     188882
# 
# Disc length: 2746
# 
# Revision: 3
# Processed by: cddbd v1.5.2PL0 Copyright (c) Steve Scherf et al.
# Submitted via: fre:ac v1.0.31
# 
DISCID=8b0ab80c
DTITLE=原田知世 - Blue Orange
DYEAR=1998
DGENRE=JPop
TTITLE0=自由のドア
TTITLE1=青空と白い花
TTITLE2=春のうた
TTITLE3=Tomorrow
TTITLE4=Day By Day
TTITLE5=ひまわりの丘で
TTITLE6=Blue Moon
TTITLE7=Angel
TTITLE8=七色の楽園
TTITLE9=蜘蛛の糸
TTITLE10=Dream Is Over Now
TTITLE11=恋をしよう
EXTD=YEAR: 1998
EXTT0=
EXTT1=
EXTT2=
EXTT3=
EXTT4=
EXTT5=
EXTT6=
EXTT7=
EXTT8=
EXTT9=
EXTT10=
EXTT11=
PLAYORDER=
